<?xml version="1.0" encoding="iso-8859-1"?>
<!-- Uploaded to: SVG Repo, www.svgrepo.com, Generator: SVG Repo Mixer Tools -->
<!DOCTYPE svg PUBLIC "-//W3C//DTD SVG 1.1//EN" "http://www.w3.org/Graphics/SVG/1.1/DTD/svg11.dtd">
<svg fill="#000000" height="800px" width="800px" version="1.1" id="Capa_1" xmlns="http://www.w3.org/2000/svg" xmlns:xlink="http://www.w3.org/1999/xlink" 
	 viewBox="0 0 60.034 60.034" xml:space="preserve">
<g>
	<path d="M15.862,29.422c-0.456-0.31-1.079-0.194-1.39,0.263l-0.781,1.146c-0.312,0.456-0.193,1.078,0.263,1.39
		c0.173,0.117,0.368,0.174,0.563,0.174c0.319,0,0.634-0.152,0.827-0.437l0.781-1.146C16.436,30.355,16.318,29.733,15.862,29.422z"/>
	<path d="M12.374,32.891l-1.181-0.729c-0.473-0.293-1.087-0.144-1.376,0.325c-0.29,0.471-0.145,1.086,0.325,1.376l1.181,0.729
		c0.164,0.102,0.346,0.149,0.524,0.149c0.335,0,0.663-0.169,0.852-0.475C12.989,33.797,12.844,33.182,12.374,32.891z"/>
	<path d="M18.475,32.74l1.383,0.107c0.026,0.002,0.052,0.003,0.078,0.003c0.518,0,0.955-0.398,0.996-0.923
		c0.043-0.551-0.369-1.031-0.92-1.074l-1.383-0.107c-0.549-0.055-1.031,0.369-1.074,0.92S17.925,32.697,18.475,32.74z"/>
	<path d="M23.74,33.175l-0.781,1.146c-0.312,0.457-0.193,1.079,0.263,1.39c0.173,0.117,0.368,0.174,0.563,0.174
		c0.319,0,0.634-0.152,0.827-0.437l0.781-1.146c0.312-0.457,0.193-1.079-0.263-1.39C24.673,32.602,24.052,32.718,23.74,33.175z"/>
	<path d="M22.399,30.369l1.181,0.729c0.164,0.102,0.346,0.149,0.524,0.149c0.335,0,0.663-0.169,0.852-0.475
		c0.29-0.471,0.145-1.086-0.325-1.376l-1.181-0.729c-0.473-0.292-1.087-0.145-1.376,0.325
		C21.784,29.464,21.929,30.079,22.399,30.369z"/>
	<path d="M46.104,34.738c0.319,0,0.634-0.152,0.827-0.437l0.782-1.146c0.312-0.456,0.193-1.078-0.263-1.39
		c-0.454-0.31-1.079-0.194-1.39,0.263l-0.782,1.146c-0.312,0.456-0.193,1.078,0.263,1.39C45.714,34.682,45.91,34.738,46.104,34.738z
		"/>
	<path d="M42.19,30.864l1.181,0.729c0.164,0.102,0.346,0.149,0.524,0.149c0.335,0,0.663-0.169,0.852-0.475
		c0.29-0.471,0.145-1.086-0.325-1.376l-1.181-0.729c-0.472-0.293-1.088-0.145-1.376,0.325C41.575,29.959,41.72,30.574,42.19,30.864z
		"/>
	<path d="M28.028,30.395l1.384,0.107c0.026,0.002,0.053,0.003,0.078,0.003c0.518,0,0.955-0.398,0.996-0.923
		c0.043-0.551-0.369-1.031-0.92-1.074l-1.384-0.107c-0.563-0.039-1.031,0.369-1.074,0.92S27.477,30.352,28.028,30.395z"/>
	<path d="M29.024,32.688c-0.53-0.145-1.081,0.173-1.225,0.707c-0.144,0.533,0.173,1.082,0.707,1.225l1.34,0.359
		c0.087,0.023,0.174,0.034,0.26,0.034c0.441,0,0.845-0.294,0.965-0.741c0.144-0.533-0.173-1.082-0.707-1.225L29.024,32.688z"/>
	<path d="M34.332,33.736c0.135,0.426,0.528,0.697,0.953,0.697c0.1,0,0.202-0.015,0.303-0.047l1.323-0.42
		c0.526-0.167,0.817-0.729,0.65-1.256c-0.166-0.525-0.725-0.819-1.256-0.65l-1.323,0.42C34.456,32.647,34.165,33.21,34.332,33.736z"
		/>
	<path d="M33.105,32.014c0.255,0,0.51-0.097,0.705-0.291l0.984-0.979c0.392-0.389,0.394-1.022,0.004-1.414s-1.022-0.395-1.414-0.004
		L32.4,30.305c-0.392,0.389-0.394,1.022-0.004,1.414C32.592,31.915,32.848,32.014,33.105,32.014z"/>
	<path d="M40.138,33.611c0.118,0.448,0.523,0.744,0.966,0.744c0.085,0,0.171-0.011,0.257-0.033c0.533-0.141,0.852-0.688,0.711-1.223
		l-0.354-1.342c-0.141-0.535-0.69-0.853-1.223-0.711c-0.533,0.141-0.852,0.688-0.711,1.223L40.138,33.611z"/>
	<path d="M36.813,28.9l1.384,0.108c0.026,0.002,0.053,0.003,0.079,0.003c0.517,0,0.955-0.397,0.996-0.922
		c0.043-0.551-0.368-1.032-0.919-1.075l-1.384-0.108c-0.544-0.043-1.032,0.367-1.075,0.919C35.851,28.376,36.262,28.857,36.813,28.9
		z"/>
	<path d="M24.227,20.564c0.244,0.854,1.036,1.449,1.925,1.449c0.186,0,0.37-0.025,0.549-0.077l2.884-0.826
		c0.513-0.147,0.938-0.485,1.197-0.953s0.322-1.008,0.175-1.521l-0.826-2.884c-0.295-1.031-1.438-1.674-2.474-1.372l-2.884,0.826
		c-0.513,0.147-0.938,0.485-1.197,0.953c-0.26,0.468-0.322,1.008-0.175,1.521L24.227,20.564z"/>
	<path d="M16.034,25.014c2.206,0,4-1.794,4-4s-1.794-4-4-4s-4,1.794-4,4S13.828,25.014,16.034,25.014z"/>
	<path d="M35.316,21.872c0.264,0.724,0.959,1.21,1.729,1.21c0.216,0,0.43-0.038,0.633-0.112l1.235-0.452
		c0.954-0.348,1.446-1.407,1.099-2.362l-2.171-5.934c-0.339-0.926-1.437-1.436-2.362-1.096l-1.235,0.452
		c-0.462,0.169-0.831,0.508-1.038,0.954c-0.208,0.446-0.229,0.946-0.06,1.408L35.316,21.872z"/>
	<path d="M59.819,37.059c-0.332-0.646-0.99-1.046-1.716-1.046h-2.363c-0.25-0.509-0.615-0.952-1.09-1.274
		c-0.326-0.222-0.501-0.552-0.467-0.884c0.041-0.407,0.015-0.76-0.083-1.08c-0.335-1.096-1.271-1.972-2.383-2.231
		c-0.13-0.029-0.271-0.049-0.422-0.062c-0.396-1.091-1.437-1.875-2.659-1.887c-0.18-1.099-0.909-2.017-1.9-2.47
		c-0.005-0.164-0.023-0.327-0.07-0.489l-0.826-2.884c-0.295-1.031-1.438-1.668-2.474-1.372l-2.884,0.826
		c-0.513,0.147-0.938,0.485-1.197,0.953c-0.209,0.377-0.284,0.801-0.23,1.22c-1.054-0.053-2.087-0.089-3.096-0.105
		c-0.348-1.853-1.972-3.261-3.925-3.261c-2.03,0-3.693,1.525-3.948,3.487c-0.894,0.064-1.778,0.136-2.646,0.224l0.01-0.011
		c0.33-0.365,0.497-0.838,0.472-1.33c-0.025-0.49-0.24-0.941-0.605-1.272l-0.979-0.882c-0.725-0.653-1.946-0.588-2.601,0.136
		l-4.084,4.532c-0.886,0.179-1.744,0.37-2.578,0.57c0.006-0.22-0.016-0.441-0.083-0.658c-0.159-0.511-0.508-0.929-0.98-1.176
		l-2.657-1.393c-0.948-0.498-2.205-0.101-2.699,0.844l-1.393,2.657c-0.247,0.473-0.296,1.014-0.136,1.524
		c0.13,0.418,0.393,0.768,0.741,1.019c-0.006,0.119-0.001,0.24,0.016,0.361c0.054,0.354-0.131,0.664-0.295,0.861
		c-0.321,0.386-0.729,0.552-0.845,0.556c-0.418,0.014-0.797,0.193-1.098,0.52c-0.533,0.578-0.694,1.497-0.739,2.101
		c-0.691,0.404-1.811,1.152-1.863,2.33H1.929c-0.726,0-1.383,0.4-1.715,1.046s-0.275,1.413,0.146,2.004l0.12,0.169l5.239,3.151
		c0.237,0.412,0.399,0.992,0.556,1.557c0.36,1.297,0.854,3.073,2.758,3.073h42c1.903,0,2.397-1.776,2.758-3.073
		c0.157-0.564,0.318-1.146,0.556-1.558l5.206-3.151l0.119-0.168C60.094,38.473,60.151,37.705,59.819,37.059z M6.082,35.314
		c0.354-0.203,0.839-0.481,0.809-1.125c-0.02-0.404,0.071-0.911,0.174-1.151c0.721-0.111,1.506-0.583,2.062-1.252
		c0.367-0.441,0.607-0.937,0.713-1.436l0.922,0.483c0.008,0.004,0.017,0.005,0.024,0.009c0.12,0.061,0.245,0.108,0.372,0.141
		c0.091,0.025,0.184,0.035,0.277,0.047c0.036,0.004,0.072,0.011,0.108,0.013c0.048,0.004,0.096,0.018,0.144,0.018
		c0.066,0,0.127-0.02,0.191-0.026c0.021-0.002,0.042-0.006,0.063-0.009c0.353-0.045,0.678-0.179,0.954-0.39
		c0.046-0.033,0.089-0.069,0.132-0.106c0.057-0.052,0.114-0.103,0.165-0.162c0.103-0.115,0.197-0.238,0.271-0.378l0.64-1.222
		c0.98-0.262,2.015-0.509,3.088-0.739c0.002,0.004,0.005,0.008,0.007,0.013c0.041,0.091,0.092,0.177,0.148,0.26
		c0.015,0.023,0.026,0.047,0.042,0.069c0.075,0.103,0.16,0.199,0.257,0.287l0.978,0.881c0.339,0.306,0.776,0.474,1.232,0.474
		c0.521,0,1.021-0.222,1.369-0.608l2.199-2.44c1.572-0.205,3.216-0.368,4.898-0.488c0.063,0.159,0.144,0.307,0.226,0.456
		c0.021,0.039,0.04,0.078,0.063,0.115c0.084,0.14,0.175,0.273,0.275,0.401c0.034,0.045,0.071,0.087,0.107,0.13
		c0.104,0.123,0.209,0.243,0.327,0.353c0.016,0.015,0.033,0.026,0.049,0.041c0.216,0.195,0.453,0.362,0.708,0.507
		c0.093,0.053,0.185,0.108,0.282,0.154c0.099,0.046,0.199,0.084,0.302,0.122c0.132,0.049,0.266,0.09,0.403,0.125
		c0.085,0.021,0.169,0.045,0.256,0.061c0.233,0.043,0.471,0.072,0.715,0.072c0.247,0,0.487-0.029,0.722-0.073
		c0.097-0.018,0.19-0.046,0.285-0.071c0.127-0.034,0.252-0.07,0.373-0.116c0.12-0.044,0.235-0.094,0.349-0.149
		c0.077-0.038,0.151-0.08,0.226-0.123c0.663-0.375,1.203-0.929,1.562-1.603c0.011-0.021,0.023-0.041,0.034-0.062
		c0.085-0.167,0.157-0.339,0.219-0.518c0.004-0.012,0.011-0.023,0.015-0.035c1.226,0.019,2.493,0.064,3.786,0.139l0.333,1.162
		c0.052,0.181,0.137,0.344,0.237,0.498c0.032,0.052,0.064,0.101,0.1,0.149c0.093,0.119,0.196,0.229,0.313,0.324
		c0.076,0.063,0.157,0.113,0.241,0.164c0.063,0.038,0.128,0.071,0.194,0.103c0.117,0.055,0.235,0.1,0.362,0.132
		c0.122,0.032,0.245,0.053,0.371,0.062c0.037,0.002,0.07,0.018,0.107,0.018c0.028,0,0.055-0.01,0.083-0.012
		c0.147-0.004,0.294-0.022,0.439-0.062c0.009-0.002,0.018-0.001,0.026-0.004l2.884-0.826c0.172-0.05,0.33-0.128,0.479-0.218
		c0.003-0.002,0.006-0.002,0.008-0.004c0.523,0.177,0.897,0.669,0.897,1.242c0,0.951,0.994,1.465,1.929,1.465
		c0.473,0,0.857,0.385,0.857,0.857c0,0.103,0.032,1.001,1.154,1.005c0.125,0.001,0.507,0.002,0.646,0.034
		c0.423,0.099,0.794,0.448,0.922,0.866c0.005,0.015,0.026,0.099,0.006,0.295c-0.089,0.868,0.239,1.729,0.872,2.36H39.773
		l-0.586-0.046c-0.121-0.008-0.237,0.013-0.349,0.046H17.33c0.109-0.138,0.195-0.297,0.218-0.485l0.171-1.377
		c0.068-0.548-0.321-1.048-0.869-1.115c-0.549-0.071-1.048,0.321-1.115,0.869l-0.171,1.377c-0.034,0.271,0.046,0.53,0.2,0.731H5.099
		C5.215,35.876,5.485,35.656,6.082,35.314z M14.105,43.014h-4.071c-0.553,0-1-0.447-1-1s0.447-1,1-1h4.071c0.553,0,1,0.447,1,1
		S14.658,43.014,14.105,43.014z M50.034,43.014H19.019c-0.553,0-1-0.447-1-1s0.447-1,1-1h31.015c0.553,0,1,0.447,1,1
		S50.587,43.014,50.034,43.014z"/>
</g>
</svg>